<svg width="22" height="26" viewBox="0 0 22 26" fill="none" xmlns="http://www.w3.org/2000/svg">
<path d="M5.66829 25.5133C5.15567 25.1723 4.70135 24.7509 4.32279 24.2653C3.90637 23.7642 3.52054 23.2383 3.16741 22.6907C2.33873 21.4767 1.68885 20.1498 1.23772 18.7509C0.695787 17.1259 0.43335 15.5683 0.43335 14.0449C0.43335 12.3435 0.801412 10.8583 1.52129 9.61027C2.05492 8.63482 2.8395 7.81966 3.79385 7.24914C4.71872 6.67468 5.78142 6.36031 6.86997 6.33914C7.25104 6.33914 7.66135 6.39439 8.09685 6.50002C8.40966 6.58858 8.79072 6.72833 9.25629 6.90221C9.8486 7.13052 10.1744 7.27027 10.2849 7.30439C10.6318 7.43114 10.9235 7.48639 11.1527 7.48639C11.3265 7.48639 11.5719 7.43114 11.8506 7.34664C12.0074 7.29139 12.3032 7.19389 12.7265 7.01271C13.1457 6.85996 13.4756 6.72914 13.738 6.63164C14.1402 6.51302 14.5294 6.40333 14.8763 6.34808C15.2876 6.28324 15.705 6.26606 16.1203 6.29689C16.8398 6.34393 17.5486 6.49641 18.2238 6.74946C19.328 7.19389 20.221 7.88777 20.8856 8.87414C20.6047 9.04728 20.341 9.24699 20.0983 9.47052C19.5698 9.93899 19.1197 10.489 18.765 11.0996C18.3013 11.9341 18.0609 12.8741 18.067 13.8288C18.0841 15.0012 18.3847 16.0339 18.977 16.9268C19.4125 17.5886 19.9784 18.1546 20.6402 18.59C20.979 18.8183 21.2707 18.9751 21.5502 19.0808C21.4194 19.487 21.2797 19.8803 21.1147 20.2703C20.7406 21.1448 20.2873 21.9833 19.7603 22.7752C19.2907 23.4569 18.9226 23.9647 18.6431 24.3027C18.2076 24.8186 17.7883 25.2127 17.365 25.4873C16.8995 25.7961 16.3494 25.961 15.7904 25.961C15.4118 25.9756 15.0333 25.9298 14.6692 25.8253C14.3563 25.7197 14.0468 25.6051 13.7421 25.4743C13.4253 25.3288 13.0987 25.2058 12.7647 25.1063C11.9389 24.8942 11.0731 24.8928 10.2467 25.1022C9.90791 25.1997 9.5821 25.3135 9.26035 25.4532C8.80779 25.6433 8.50716 25.7709 8.33329 25.8253C7.98635 25.9269 7.62641 25.9903 7.26241 26.0114C6.69935 26.0114 6.17447 25.8505 5.65447 25.5247L5.66829 25.5133ZM13.0945 5.51364C12.3584 5.88171 11.6556 6.03852 10.9577 5.98733C10.848 5.28452 10.9577 4.56546 11.2493 3.77814C11.4977 3.11114 11.8646 2.49454 12.3324 1.95814C12.8264 1.39347 13.4259 0.930637 14.0972 0.595582C14.8122 0.227519 15.4938 0.0284565 16.1455 -0.000793457C16.23 0.735332 16.1455 1.45927 15.8749 2.24171C15.6245 2.93337 15.2583 3.5774 14.7918 4.14621C14.3158 4.71165 13.7315 5.17628 13.0734 5.51283L13.0945 5.51364Z" fill="black"/>
</svg>
