<svg width="32" height="32" viewBox="0 0 32 32" fill="none" xmlns="http://www.w3.org/2000/svg">
<path fill-rule="evenodd" clip-rule="evenodd" d="M10.6667 5.33333C10.6667 4.59733 11.2174 4 11.8974 4H20.1027C20.7827 4 21.3334 4.59733 21.3334 5.33333C21.3334 6.06933 20.7827 6.66667 20.1027 6.66667H11.8974C11.2174 6.66667 10.6667 6.06933 10.6667 5.33333ZM13.0374 28H18.9627C23.1241 28 25.2054 28 26.7001 27.0373C27.3432 26.6239 27.8986 26.0879 28.3347 25.46C29.3334 24.02 29.3334 22.0133 29.3334 18C29.3334 13.9867 29.3334 11.9813 28.3334 10.54C27.8977 9.91215 27.3427 9.37619 26.7001 8.96267C25.2054 8 23.1241 8 18.9627 8H13.0374C8.87608 8 6.79475 8 5.30008 8.96267C4.65745 9.37622 4.10246 9.91218 3.66675 10.54C2.66675 11.98 2.66675 13.9867 2.66675 17.9973V18C2.66675 22.0133 2.66675 24.0187 3.66541 25.46C4.09741 26.084 4.65208 26.62 5.30008 27.0373C6.79475 28 8.87608 28 13.0374 28ZM10.4441 18C10.4441 15.04 12.9321 12.6427 16.0001 12.6427C19.0681 12.6427 21.5561 15.0413 21.5561 18C21.5561 20.9587 19.0667 23.3573 16.0001 23.3573C12.9321 23.3573 10.4441 20.9573 10.4441 18ZM12.6667 18C12.6667 16.224 14.1601 14.7867 16.0001 14.7867C17.8401 14.7867 19.3334 16.2253 19.3334 18C19.3334 19.7747 17.8401 21.2133 16.0001 21.2133C14.1601 21.2133 12.6667 19.7747 12.6667 18ZM24.1481 12.6427C23.5347 12.6427 23.0374 13.1227 23.0374 13.7147C23.0374 14.3053 23.5347 14.7853 24.1481 14.7853H24.8894C25.5027 14.7853 26.0001 14.3053 26.0001 13.7147C26.0001 13.1227 25.5027 12.6427 24.8894 12.6427H24.1481Z" fill="white"/>
</svg>
