<svg width="32" height="31" viewBox="0 0 32 31" fill="none" xmlns="http://www.w3.org/2000/svg">
<path d="M18.8333 29.1666H13.1666C7.82434 29.1666 5.1525 29.1666 3.49359 27.5063C1.83325 25.8474 1.83325 23.1755 1.83325 17.8333V15C1.83325 9.65771 1.83325 6.98588 3.49359 5.32696C5.1525 3.66663 7.82434 3.66663 13.1666 3.66663H18.8333C24.1755 3.66663 26.8473 3.66663 28.5063 5.32696C30.1666 6.98588 30.1666 9.65771 30.1666 15V17.8333C30.1666 23.1755 30.1666 25.8474 28.5063 27.5063C27.5812 28.4328 26.3416 28.8422 24.4999 29.0221M8.91659 3.66663V1.54163M23.0833 3.66663V1.54163M29.4583 10.75H14.2291M1.83325 10.75H7.32284" stroke="#0DC81D" stroke-width="2.5" stroke-linecap="round"/>
<path d="M24.5 22.0833C24.5 22.4591 24.3507 22.8194 24.0851 23.0851C23.8194 23.3507 23.4591 23.5 23.0833 23.5C22.7076 23.5 22.3473 23.3507 22.0816 23.0851C21.8159 22.8194 21.6667 22.4591 21.6667 22.0833C21.6667 21.7076 21.8159 21.3473 22.0816 21.0816C22.3473 20.8159 22.7076 20.6667 23.0833 20.6667C23.4591 20.6667 23.8194 20.8159 24.0851 21.0816C24.3507 21.3473 24.5 21.7076 24.5 22.0833ZM24.5 16.4167C24.5 16.7924 24.3507 17.1527 24.0851 17.4184C23.8194 17.6841 23.4591 17.8333 23.0833 17.8333C22.7076 17.8333 22.3473 17.6841 22.0816 17.4184C21.8159 17.1527 21.6667 16.7924 21.6667 16.4167C21.6667 16.0409 21.8159 15.6806 22.0816 15.4149C22.3473 15.1493 22.7076 15 23.0833 15C23.4591 15 23.8194 15.1493 24.0851 15.4149C24.3507 15.6806 24.5 16.0409 24.5 16.4167ZM17.4167 22.0833C17.4167 22.4591 17.2674 22.8194 17.0017 23.0851C16.7361 23.3507 16.3757 23.5 16 23.5C15.6243 23.5 15.2639 23.3507 14.9983 23.0851C14.7326 22.8194 14.5833 22.4591 14.5833 22.0833C14.5833 21.7076 14.7326 21.3473 14.9983 21.0816C15.2639 20.8159 15.6243 20.6667 16 20.6667C16.3757 20.6667 16.7361 20.8159 17.0017 21.0816C17.2674 21.3473 17.4167 21.7076 17.4167 22.0833ZM17.4167 16.4167C17.4167 16.7924 17.2674 17.1527 17.0017 17.4184C16.7361 17.6841 16.3757 17.8333 16 17.8333C15.6243 17.8333 15.2639 17.6841 14.9983 17.4184C14.7326 17.1527 14.5833 16.7924 14.5833 16.4167C14.5833 16.0409 14.7326 15.6806 14.9983 15.4149C15.2639 15.1493 15.6243 15 16 15C16.3757 15 16.7361 15.1493 17.0017 15.4149C17.2674 15.6806 17.4167 16.0409 17.4167 16.4167ZM10.3333 22.0833C10.3333 22.4591 10.1841 22.8194 9.9184 23.0851C9.65272 23.3507 9.29239 23.5 8.91667 23.5C8.54094 23.5 8.18061 23.3507 7.91493 23.0851C7.64926 22.8194 7.5 22.4591 7.5 22.0833C7.5 21.7076 7.64926 21.3473 7.91493 21.0816C8.18061 20.8159 8.54094 20.6667 8.91667 20.6667C9.29239 20.6667 9.65272 20.8159 9.9184 21.0816C10.1841 21.3473 10.3333 21.7076 10.3333 22.0833ZM10.3333 16.4167C10.3333 16.7924 10.1841 17.1527 9.9184 17.4184C9.65272 17.6841 9.29239 17.8333 8.91667 17.8333C8.54094 17.8333 8.18061 17.6841 7.91493 17.4184C7.64926 17.1527 7.5 16.7924 7.5 16.4167C7.5 16.0409 7.64926 15.6806 7.91493 15.4149C8.18061 15.1493 8.54094 15 8.91667 15C9.29239 15 9.65272 15.1493 9.9184 15.4149C10.1841 15.6806 10.3333 16.0409 10.3333 16.4167Z" fill="#0DC81D"/>
</svg>
