<svg width="21" height="21" viewBox="0 0 21 21" fill="none" xmlns="http://www.w3.org/2000/svg">
<path d="M19.5 18V11.267C19.5 10.7245 19.3896 10.1876 19.1756 9.68904C18.9616 9.19049 18.6483 8.74069 18.255 8.36701L11.878 2.31001C11.5063 1.9569 11.0132 1.76001 10.5005 1.76001C9.98781 1.76001 9.4947 1.9569 9.123 2.31001L2.745 8.36701C2.35165 8.74069 2.03844 9.19049 1.8244 9.68904C1.61037 10.1876 1.5 10.7245 1.5 11.267V18C1.5 18.5304 1.71071 19.0392 2.08579 19.4142C2.46086 19.7893 2.96957 20 3.5 20H17.5C18.0304 20 18.5391 19.7893 18.9142 19.4142C19.2893 19.0392 19.5 18.5304 19.5 18Z" fill="#787878" stroke="#787878" stroke-width="2" stroke-linecap="round" stroke-linejoin="round"/>
</svg>
