<svg version="1.1" id="Layer_1" xmlns="http://www.w3.org/2000/svg" xmlns:xlink="http://www.w3.org/1999/xlink" x="0px" y="0px"
	 width="100%" viewBox="0 0 500 500" enable-background="new 0 0 500 500" xml:space="preserve">
<path fill="#FFFFFF" opacity="1.000000" stroke="none" 
	d="
M229.000000,501.000000 
	C152.666687,501.000000 76.833366,501.000000 1.000041,501.000000 
	C1.000027,334.333405 1.000027,167.666779 1.000014,1.000130 
	C167.666565,1.000087 334.333130,1.000087 500.999756,1.000043 
	C500.999847,167.666519 500.999847,334.333038 500.999939,500.999786 
	C410.500000,501.000000 320.000000,501.000000 229.000000,501.000000 
M159.222778,361.246857 
	C174.778122,381.800049 195.578323,391.854492 221.219498,391.895203 
	C269.719116,391.972229 318.218964,391.919434 366.718689,391.909119 
	C368.167175,391.908813 369.615692,391.780823 370.950562,391.717743 
	C370.950562,375.079285 370.950562,358.834656 370.950562,342.244965 
	C368.810150,342.244965 367.005310,342.244995 365.200470,342.244965 
	C317.700714,342.244354 270.200745,342.310120 222.701599,342.139679 
	C217.989670,342.122772 212.874710,341.578644 208.653824,339.694946 
	C197.974838,334.929138 194.436920,325.660339 194.454544,314.421204 
	C194.540222,259.754944 194.492859,205.088531 194.492615,150.422165 
	C194.492615,148.461304 194.492630,146.500427 194.492630,144.441101 
	C177.723251,144.441101 161.494904,144.441101 145.258881,144.441101 
	C145.139343,145.205521 144.998383,145.685928 144.998428,146.166336 
	C145.004349,203.999115 144.913849,261.832245 145.109283,319.664429 
	C145.160095,334.695099 150.073502,348.386505 159.222778,361.246857 
M348.501709,158.502136 
	C348.501709,153.752625 348.501709,149.003128 348.501709,143.701950 
	C356.329834,143.701950 363.483978,143.701950 371.381744,143.701950 
	C356.940887,127.981857 343.147278,112.966339 329.166718,97.747322 
	C314.966248,113.227394 301.202454,128.231400 286.607025,144.141998 
	C295.171509,144.141998 302.404572,144.141998 309.632324,144.141998 
	C309.772217,145.054932 309.909210,145.530914 309.908875,146.006821 
	C309.883148,183.158936 309.987701,220.312241 309.672729,257.462006 
	C309.619995,263.681458 308.458527,270.115448 306.549255,276.044525 
	C303.420288,285.761108 294.638184,290.921478 283.449799,290.869812 
	C272.210693,290.817902 263.341492,285.673767 260.378876,275.988922 
	C258.366913,269.411804 257.356567,262.304535 257.241669,255.411957 
	C256.864044,232.758163 257.099152,210.094147 257.098816,187.434067 
	C257.098785,185.661865 257.098816,183.889648 257.098816,182.082718 
	C243.770020,182.082718 231.034866,182.082718 218.243378,182.082718 
	C218.243378,210.816681 217.626831,239.289246 218.476379,267.718018 
	C218.979858,284.566040 225.630798,299.486420 239.422424,310.260651 
	C252.838547,320.741547 268.522186,323.590393 285.050751,323.205200 
	C325.117188,322.271576 347.259888,300.872833 348.128265,260.914978 
	C348.862549,227.123917 348.422211,193.307343 348.501709,158.502136 
z"/>
<path fill="#020101" opacity="1.000000" stroke="none" 
	d="
M159.029953,360.945557 
	C150.073502,348.386505 145.160095,334.695099 145.109283,319.664429 
	C144.913849,261.832245 145.004349,203.999115 144.998428,146.166336 
	C144.998383,145.685928 145.139343,145.205521 145.258881,144.441101 
	C161.494904,144.441101 177.723251,144.441101 194.492630,144.441101 
	C194.492630,146.500427 194.492615,148.461304 194.492615,150.422165 
	C194.492859,205.088531 194.540222,259.754944 194.454544,314.421204 
	C194.436920,325.660339 197.974838,334.929138 208.653824,339.694946 
	C212.874710,341.578644 217.989670,342.122772 222.701599,342.139679 
	C270.200745,342.310120 317.700714,342.244354 365.200470,342.244965 
	C367.005310,342.244995 368.810150,342.244965 370.950562,342.244965 
	C370.950562,358.834656 370.950562,375.079285 370.950562,391.717743 
	C369.615692,391.780823 368.167175,391.908813 366.718689,391.909119 
	C318.218964,391.919434 269.719116,391.972229 221.219498,391.895203 
	C195.578323,391.854492 174.778122,381.800049 159.029953,360.945557 
z"/>
<path fill="#0EC81F" opacity="1.000000" stroke="none" 
	d="
M348.501740,159.002106 
	C348.422211,193.307343 348.862549,227.123917 348.128265,260.914978 
	C347.259888,300.872833 325.117188,322.271576 285.050751,323.205200 
	C268.522186,323.590393 252.838547,320.741547 239.422424,310.260651 
	C225.630798,299.486420 218.979858,284.566040 218.476379,267.718018 
	C217.626831,239.289246 218.243378,210.816681 218.243378,182.082718 
	C231.034866,182.082718 243.770020,182.082718 257.098816,182.082718 
	C257.098816,183.889648 257.098785,185.661865 257.098816,187.434067 
	C257.099152,210.094147 256.864044,232.758163 257.241669,255.411957 
	C257.356567,262.304535 258.366913,269.411804 260.378876,275.988922 
	C263.341492,285.673767 272.210693,290.817902 283.449799,290.869812 
	C294.638184,290.921478 303.420288,285.761108 306.549255,276.044525 
	C308.458527,270.115448 309.619995,263.681458 309.672729,257.462006 
	C309.987701,220.312241 309.883148,183.158936 309.908875,146.006821 
	C309.909210,145.530914 309.772217,145.054932 309.632324,144.141998 
	C302.404572,144.141998 295.171509,144.141998 286.607025,144.141998 
	C301.202454,128.231400 314.966248,113.227394 329.166718,97.747322 
	C343.147278,112.966339 356.940887,127.981857 371.381744,143.701950 
	C363.483978,143.701950 356.329834,143.701950 348.501709,143.701950 
	C348.501709,149.003128 348.501709,153.752625 348.501740,159.002106 
z"/>
</svg>