<svg width="16" height="18" viewBox="0 0 16 18" fill="none" xmlns="http://www.w3.org/2000/svg">
<path fill-rule="evenodd" clip-rule="evenodd" d="M0.916687 7.59809C0.916687 3.76487 4.11992 0.666626 7.99456 0.666626C11.8801 0.666626 15.0834 3.76487 15.0834 7.59809C15.0834 9.5297 14.3809 11.323 13.2246 12.8429C11.949 14.5196 10.3768 15.9803 8.60714 17.127C8.20211 17.392 7.83658 17.412 7.39206 17.127C5.6123 15.9803 4.04009 14.5196 2.77544 12.8429C1.61834 11.323 0.916687 9.5297 0.916687 7.59809ZM5.66188 7.81392C5.66188 9.09805 6.70974 10.108 7.99456 10.108C9.28022 10.108 10.3382 9.09805 10.3382 7.81392C10.3382 6.53979 9.28022 5.48065 7.99456 5.48065C6.70974 5.48065 5.66188 6.53979 5.66188 7.81392Z" fill="#0DC81D"/>
</svg>
