<svg width="25" height="24" viewBox="0 0 25 24" fill="none" xmlns="http://www.w3.org/2000/svg">
<path d="M12.5 12C15.2614 12 17.5 9.76142 17.5 7C17.5 4.23858 15.2614 2 12.5 2C9.73858 2 7.5 4.23858 7.5 7C7.5 9.76142 9.73858 12 12.5 12Z" stroke="#787878" stroke-width="2"/>
<path d="M17.5 14H17.852C18.5831 14.0002 19.2889 14.2674 19.8369 14.7513C20.3849 15.2352 20.7373 15.9026 20.828 16.628L21.219 19.752C21.2542 20.0334 21.2291 20.3191 21.1454 20.5901C21.0617 20.8611 20.9214 21.1112 20.7336 21.3238C20.5459 21.5364 20.3151 21.7066 20.0566 21.8232C19.798 21.9398 19.5176 22.0001 19.234 22H5.766C5.48238 22.0001 5.20199 21.9398 4.94345 21.8232C4.6849 21.7066 4.4541 21.5364 4.26638 21.3238C4.07865 21.1112 3.93829 20.8611 3.8546 20.5901C3.77092 20.3191 3.74583 20.0334 3.781 19.752L4.171 16.628C4.2617 15.9022 4.61442 15.2346 5.16283 14.7506C5.71125 14.2667 6.41758 13.9997 7.149 14H7.5" stroke="#787878" stroke-width="2" stroke-linecap="round" stroke-linejoin="round"/>
</svg>
