<svg width="98" height="18" viewBox="0 0 98 18" fill="none" xmlns="http://www.w3.org/2000/svg">
<g clip-path="url(#clip0_1226_1365)">
<path d="M6.86474 4.056C7.81499 2.352 8.28974 1.5 8.99999 1.5C9.71024 1.5 10.185 2.352 11.1352 4.056L11.3812 4.497C11.6512 4.9815 11.7862 5.22375 11.9962 5.3835C12.2062 5.54325 12.4687 5.6025 12.9937 5.721L13.4707 5.829C15.3157 6.24675 16.2375 6.45525 16.4572 7.161C16.6762 7.866 16.0477 8.60175 14.79 10.0725L14.4645 10.4528C14.1075 10.8705 13.9282 11.0798 13.848 11.3378C13.7677 11.5965 13.7947 11.8755 13.8487 12.4328L13.8982 12.9405C14.088 14.9033 14.1832 15.8843 13.6087 16.32C13.0342 16.7565 12.1702 16.3583 10.4437 15.5633L9.99599 15.3578C9.50549 15.1313 9.26024 15.0188 8.99999 15.0188C8.73974 15.0188 8.49449 15.1313 8.00399 15.3578L7.55699 15.5633C5.82974 16.3583 4.96574 16.7558 4.39199 16.3208C3.81674 15.8843 3.91199 14.9033 4.10174 12.9405L4.15124 12.4335C4.20524 11.8755 4.23224 11.5965 4.15124 11.3385C4.07174 11.0798 3.89249 10.8705 3.53549 10.4535L3.20999 10.0725C1.95224 8.6025 1.32374 7.86675 1.54274 7.161C1.76249 6.45525 2.68499 6.246 4.52999 5.829L5.00699 5.721C5.53124 5.6025 5.79299 5.54325 6.00374 5.3835C6.21374 5.22375 6.34874 4.9815 6.61874 4.497L6.86474 4.056Z" stroke="black" stroke-width="1.5"/>
</g>
<g clip-path="url(#clip1_1226_1365)">
<path d="M26.8648 4.056C27.8151 2.352 28.2898 1.5 29.0001 1.5C29.7103 1.5 30.1851 2.352 31.1353 4.056L31.3813 4.497C31.6513 4.9815 31.7863 5.22375 31.9963 5.3835C32.2063 5.54325 32.4688 5.6025 32.9938 5.721L33.4708 5.829C35.3158 6.24675 36.2376 6.45525 36.4573 7.161C36.6763 7.866 36.0478 8.60175 34.7901 10.0725L34.4646 10.4528C34.1076 10.8705 33.9283 11.0798 33.8481 11.3378C33.7678 11.5965 33.7948 11.8755 33.8488 12.4328L33.8983 12.9405C34.0881 14.9033 34.1833 15.8843 33.6088 16.32C33.0343 16.7565 32.1703 16.3583 30.4438 15.5633L29.9961 15.3578C29.5056 15.1313 29.2603 15.0188 29.0001 15.0188C28.7398 15.0188 28.4946 15.1313 28.0041 15.3578L27.5571 15.5633C25.8298 16.3583 24.9658 16.7558 24.3921 16.3208C23.8168 15.8843 23.9121 14.9033 24.1018 12.9405L24.1513 12.4335C24.2053 11.8755 24.2323 11.5965 24.1513 11.3385C24.0718 11.0798 23.8926 10.8705 23.5356 10.4535L23.2101 10.0725C21.9523 8.6025 21.3238 7.86675 21.5428 7.161C21.7626 6.45525 22.6851 6.246 24.5301 5.829L25.0071 5.721C25.5313 5.6025 25.7931 5.54325 26.0038 5.3835C26.2138 5.22375 26.3488 4.9815 26.6188 4.497L26.8648 4.056Z" stroke="black" stroke-width="1.5"/>
</g>
<g clip-path="url(#clip2_1226_1365)">
<path d="M46.8648 4.056C47.8151 2.352 48.2898 1.5 49.0001 1.5C49.7103 1.5 50.1851 2.352 51.1353 4.056L51.3813 4.497C51.6513 4.9815 51.7863 5.22375 51.9963 5.3835C52.2063 5.54325 52.4688 5.6025 52.9938 5.721L53.4708 5.829C55.3158 6.24675 56.2376 6.45525 56.4573 7.161C56.6763 7.866 56.0478 8.60175 54.7901 10.0725L54.4646 10.4528C54.1076 10.8705 53.9283 11.0798 53.8481 11.3378C53.7678 11.5965 53.7948 11.8755 53.8488 12.4328L53.8983 12.9405C54.0881 14.9033 54.1833 15.8843 53.6088 16.32C53.0343 16.7565 52.1703 16.3583 50.4438 15.5633L49.9961 15.3578C49.5056 15.1313 49.2603 15.0188 49.0001 15.0188C48.7398 15.0188 48.4946 15.1313 48.0041 15.3578L47.5571 15.5633C45.8298 16.3583 44.9658 16.7558 44.3921 16.3208C43.8168 15.8843 43.9121 14.9033 44.1018 12.9405L44.1513 12.4335C44.2053 11.8755 44.2323 11.5965 44.1513 11.3385C44.0718 11.0798 43.8926 10.8705 43.5356 10.4535L43.2101 10.0725C41.9523 8.6025 41.3238 7.86675 41.5428 7.161C41.7626 6.45525 42.6851 6.246 44.5301 5.829L45.0071 5.721C45.5313 5.6025 45.7931 5.54325 46.0038 5.3835C46.2138 5.22375 46.3488 4.9815 46.6188 4.497L46.8648 4.056Z" stroke="black" stroke-width="1.5"/>
</g>
<g clip-path="url(#clip3_1226_1365)">
<path d="M66.8648 4.056C67.8151 2.352 68.2898 1.5 69.0001 1.5C69.7103 1.5 70.1851 2.352 71.1353 4.056L71.3813 4.497C71.6513 4.9815 71.7863 5.22375 71.9963 5.3835C72.2063 5.54325 72.4688 5.6025 72.9938 5.721L73.4708 5.829C75.3158 6.24675 76.2376 6.45525 76.4573 7.161C76.6763 7.866 76.0478 8.60175 74.7901 10.0725L74.4646 10.4528C74.1076 10.8705 73.9283 11.0798 73.8481 11.3378C73.7678 11.5965 73.7948 11.8755 73.8488 12.4328L73.8983 12.9405C74.0881 14.9033 74.1833 15.8843 73.6088 16.32C73.0343 16.7565 72.1703 16.3583 70.4438 15.5633L69.9961 15.3578C69.5056 15.1313 69.2603 15.0188 69.0001 15.0188C68.7398 15.0188 68.4946 15.1313 68.0041 15.3578L67.5571 15.5633C65.8298 16.3583 64.9658 16.7558 64.3921 16.3208C63.8168 15.8843 63.9121 14.9033 64.1018 12.9405L64.1513 12.4335C64.2053 11.8755 64.2323 11.5965 64.1513 11.3385C64.0718 11.0798 63.8926 10.8705 63.5356 10.4535L63.2101 10.0725C61.9523 8.6025 61.3238 7.86675 61.5428 7.161C61.7626 6.45525 62.6851 6.246 64.5301 5.829L65.0071 5.721C65.5313 5.6025 65.7931 5.54325 66.0038 5.3835C66.2138 5.22375 66.3488 4.9815 66.6188 4.497L66.8648 4.056Z" stroke="black" stroke-width="1.5"/>
</g>
<g clip-path="url(#clip4_1226_1365)">
<path d="M86.8648 4.056C87.8151 2.352 88.2898 1.5 89.0001 1.5C89.7103 1.5 90.1851 2.352 91.1353 4.056L91.3813 4.497C91.6513 4.9815 91.7863 5.22375 91.9963 5.3835C92.2063 5.54325 92.4688 5.6025 92.9938 5.721L93.4708 5.829C95.3158 6.24675 96.2376 6.45525 96.4573 7.161C96.6763 7.866 96.0478 8.60175 94.7901 10.0725L94.4646 10.4528C94.1076 10.8705 93.9283 11.0798 93.8481 11.3378C93.7678 11.5965 93.7948 11.8755 93.8488 12.4328L93.8983 12.9405C94.0881 14.9033 94.1833 15.8843 93.6088 16.32C93.0343 16.7565 92.1703 16.3583 90.4438 15.5633L89.9961 15.3578C89.5056 15.1313 89.2603 15.0188 89.0001 15.0188C88.7398 15.0188 88.4946 15.1313 88.0041 15.3578L87.5571 15.5633C85.8298 16.3583 84.9658 16.7558 84.3921 16.3208C83.8168 15.8843 83.9121 14.9033 84.1018 12.9405L84.1513 12.4335C84.2053 11.8755 84.2323 11.5965 84.1513 11.3385C84.0718 11.0798 83.8926 10.8705 83.5356 10.4535L83.2101 10.0725C81.9523 8.6025 81.3238 7.86675 81.5428 7.161C81.7626 6.45525 82.6851 6.246 84.5301 5.829L85.0071 5.721C85.5313 5.6025 85.7931 5.54325 86.0038 5.3835C86.2138 5.22375 86.3488 4.9815 86.6188 4.497L86.8648 4.056Z" stroke="black" stroke-width="1.5"/>
</g>
<defs>
<clipPath id="clip0_1226_1365">
<rect width="18" height="18" fill="white"/>
</clipPath>
<clipPath id="clip1_1226_1365">
<rect width="18" height="18" fill="white" transform="translate(20)"/>
</clipPath>
<clipPath id="clip2_1226_1365">
<rect width="18" height="18" fill="white" transform="translate(40)"/>
</clipPath>
<clipPath id="clip3_1226_1365">
<rect width="18" height="18" fill="white" transform="translate(60)"/>
</clipPath>
<clipPath id="clip4_1226_1365">
<rect width="18" height="18" fill="white" transform="translate(80)"/>
</clipPath>
</defs>
</svg>
