<svg width="24" height="24" viewBox="0 0 24 24" fill="none" xmlns="http://www.w3.org/2000/svg">
<path d="M3.25 5C2.285 5 1.5 5.785 1.5 6.75V9.26465C1.5 9.47965 1.59291 9.68465 1.75391 9.82715C1.91491 9.96965 2.13027 10.0363 2.34277 10.0098C2.39327 10.0033 2.447 10 2.5 10C3.603 10 4.5 10.897 4.5 12C4.5 13.103 3.603 14 2.5 14C2.4475 14 2.39473 13.9977 2.34473 13.9912C2.13223 13.9637 1.91641 14.0294 1.75391 14.1719C1.59291 14.3139 1.5 14.5199 1.5 14.7354V17.25C1.5 18.215 2.285 19 3.25 19H11.1807C11.0667 18.5175 11 18.017 11 17.5H3.25C3.112 17.5 3 17.388 3 17.25V15.4648C4.694 15.2213 6 13.7605 6 12C6 10.2395 4.694 8.77866 3 8.53516V6.75C3 6.612 3.112 6.5 3.25 6.5H20.75C20.888 6.5 21 6.612 21 6.75V8.53516C19.629 8.73216 18.5127 9.72723 18.1367 11.0322C18.6502 11.0822 19.1442 11.1964 19.6152 11.3584C19.8842 10.5714 20.6225 10 21.5 10C21.553 10 21.6067 10.0028 21.6572 10.0088C21.8702 10.0353 22.0846 9.96965 22.2461 9.82715C22.4071 9.68515 22.5 9.47965 22.5 9.26465V6.75C22.5 5.785 21.715 5 20.75 5H3.25ZM17.5 12C14.4625 12 12 14.4625 12 17.5C12 20.5375 14.4625 23 17.5 23C20.5375 23 23 20.5375 23 17.5C23 14.4625 20.5375 12 17.5 12ZM17.5 13.5C17.776 13.5 18 13.724 18 14V17H21C21.276 17 21.5 17.224 21.5 17.5C21.5 17.776 21.276 18 21 18H18V21C18 21.276 17.776 21.5 17.5 21.5C17.224 21.5 17 21.276 17 21V18H14C13.724 18 13.5 17.776 13.5 17.5C13.5 17.224 13.724 17 14 17H17V14C17 13.724 17.224 13.5 17.5 13.5Z" fill="white"/>
</svg>
