<?xml version="1.0" standalone="no"?>
<!DOCTYPE svg PUBLIC "-//W3C//DTD SVG 20010904//EN"
 "http://www.w3.org/TR/2001/REC-SVG-20010904/DTD/svg10.dtd">
<svg version="1.0" xmlns="http://www.w3.org/2000/svg"
 width="500.000000pt" height="500.000000pt" viewBox="0 0 500.000000 500.000000"
 preserveAspectRatio="xMidYMid meet">

<g transform="translate(0.000000,500.000000) scale(0.100000,-0.100000)"
fill="#000000" stroke="none">
<path d="M0 2500 l0 -2500 2500 0 2500 0 0 2500 0 2500 -2500 0 -2500 0 0
-2500z m3564 627 c31 -38 156 -207 156 -212 0 -3 -24 -5 -54 -5 l-55 0 -3
-232 c-3 -222 -4 -235 -26 -273 -41 -72 -106 -101 -215 -97 -84 3 -147 50
-175 131 -7 20 -12 95 -12 182 l0 149 60 0 60 0 0 -133 c0 -193 14 -226 98
-227 85 0 98 48 87 326 l-8 173 -58 3 -59 3 34 40 c20 22 60 73 91 113 31 39
59 72 62 72 3 0 11 -6 17 -13z m-1113 -1207 c7 -27 16 -47 19 -45 4 3 13 25
20 50 16 58 39 57 60 -3 8 -23 18 -42 22 -42 4 0 13 18 19 40 7 22 18 45 26
51 18 15 17 7 -9 -72 -26 -80 -45 -85 -67 -16 -8 26 -17 47 -21 47 -4 0 -13
-21 -21 -47 -22 -71 -41 -67 -67 15 -26 81 -26 83 -8 76 8 -3 20 -28 27 -54z
m294 -2 c28 3 34 9 37 30 2 14 9 27 16 30 15 5 18 -133 3 -143 -10 -6 -23 25
-19 46 2 8 -10 13 -34 14 -37 2 -38 1 -38 -32 0 -23 -4 -33 -12 -31 -18 6 -23
129 -6 139 10 6 14 0 16 -24 3 -31 5 -33 37 -29z m150 33 c22 -44 33 -46 52
-7 16 35 33 47 33 25 0 -5 -9 -27 -20 -47 -10 -20 -22 -49 -25 -64 -7 -37 -25
-36 -25 2 0 16 -11 46 -25 66 -27 39 -31 54 -15 54 5 0 16 -13 25 -29z m255
-32 c6 -22 15 -39 19 -39 5 0 14 20 21 45 9 31 18 45 30 45 12 0 21 -14 30
-45 7 -25 15 -45 19 -45 3 0 15 23 25 52 12 35 20 47 26 38 10 -16 -31 -132
-48 -138 -7 -2 -15 5 -18 15 -4 10 -14 34 -22 53 l-14 35 -17 -50 c-25 -72
-43 -69 -69 10 -26 79 -28 92 -7 75 8 -7 20 -30 25 -51z m316 33 c0 -4 12 -32
26 -62 28 -60 27 -78 -2 -42 -24 29 -75 30 -92 2 -14 -21 -28 -27 -28 -10 0
15 53 124 64 132 10 7 30 -6 32 -20z m289 18 c3 -6 -5 -10 -19 -10 -24 0 -25
-3 -28 -62 -2 -38 -8 -63 -15 -66 -10 -3 -13 14 -13 62 0 65 0 66 -27 66 -22
0 -25 2 -13 10 20 13 107 13 115 0z m120 -6 c18 -14 18 -16 3 -41 -21 -35 -46
-46 -28 -13 18 34 6 53 -30 45 -35 -8 -40 2 -7 15 31 12 39 12 62 -6z m-287
-61 c-2 -42 -8 -68 -15 -71 -10 -3 -13 15 -13 67 0 57 3 71 15 71 13 0 15 -12
13 -67z m267 -53 c3 -5 -1 -10 -9 -10 -9 0 -16 5 -16 10 0 6 4 10 9 10 6 0 13
-4 16 -10z"/>
<path d="M3422 1915 c-10 -21 -9 -27 3 -31 27 -11 45 3 36 28 -11 31 -26 33
-39 3z"/>
</g>
</svg>
