<?xml version="1.0" standalone="no"?>
<!DOCTYPE svg PUBLIC "-//W3C//DTD SVG 20010904//EN"
 "http://www.w3.org/TR/2001/REC-SVG-20010904/DTD/svg10.dtd">
<svg version="1.0" xmlns="http://www.w3.org/2000/svg"
 width="500.000000pt" height="500.000000pt" viewBox="0 0 500.000000 500.000000"
 preserveAspectRatio="xMidYMid meet">

<g transform="translate(0.000000,500.000000) scale(0.100000,-0.100000)"
fill="#000000" stroke="none">
<path d="M0 2500 l0 -2500 2500 0 2500 0 0 2500 0 2500 -2500 0 -2500 0 0
-2500z m3401 1400 c57 -63 131 -144 165 -180 81 -85 118 -130 107 -131 -4 0
-52 0 -105 1 l-96 1 -4 -653 c-4 -633 -5 -655 -26 -729 -31 -110 -68 -175
-143 -251 -146 -149 -384 -209 -644 -162 -187 34 -334 138 -410 289 -68 136
-68 141 -73 648 l-3 457 195 0 195 0 3 -452 3 -453 28 -53 c31 -60 53 -82 114
-112 71 -34 198 -26 262 17 14 10 30 16 34 15 5 -1 6 2 2 8 -3 5 -2 10 3 10 5
0 21 22 36 49 42 78 47 161 44 791 l-3 575 -104 2 c-57 1 -105 3 -107 5 -1 2
21 28 49 58 29 30 75 80 102 110 198 218 248 269 260 262 8 -4 60 -59 116
-122z"/>
</g>
</svg>
