<svg width="40" height="40" viewBox="0 0 40 40" fill="none" xmlns="http://www.w3.org/2000/svg">
<path fill-rule="evenodd" clip-rule="evenodd" d="M26.6663 15C26.6663 16.7681 25.964 18.4638 24.7137 19.714C23.4635 20.9643 21.7678 21.6667 19.9997 21.6667C18.2316 21.6667 16.5359 20.9643 15.2856 19.714C14.0354 18.4638 13.333 16.7681 13.333 15C13.333 13.2319 14.0354 11.5362 15.2856 10.2859C16.5359 9.03571 18.2316 8.33333 19.9997 8.33333C21.7678 8.33333 23.4635 9.03571 24.7137 10.2859C25.964 11.5362 26.6663 13.2319 26.6663 15ZM23.333 15C23.333 15.884 22.9818 16.7319 22.3567 17.357C21.7316 17.9821 20.8837 18.3333 19.9997 18.3333C19.1156 18.3333 18.2678 17.9821 17.6427 17.357C17.0175 16.7319 16.6663 15.884 16.6663 15C16.6663 14.1159 17.0175 13.2681 17.6427 12.643C18.2678 12.0178 19.1156 11.6667 19.9997 11.6667C20.8837 11.6667 21.7316 12.0178 22.3567 12.643C22.9818 13.2681 23.333 14.1159 23.333 15Z" fill="black"/>
<path fill-rule="evenodd" clip-rule="evenodd" d="M19.9998 1.66666C9.87484 1.66666 1.6665 9.875 1.6665 20C1.6665 30.125 9.87484 38.3333 19.9998 38.3333C30.1248 38.3333 38.3332 30.125 38.3332 20C38.3332 9.875 30.1248 1.66666 19.9998 1.66666ZM4.99984 20C4.99984 23.4833 6.18817 26.69 8.17984 29.2367C9.57856 27.3998 11.383 25.9112 13.4522 24.8872C15.5214 23.8631 17.7994 23.3313 20.1082 23.3333C22.3871 23.3312 24.6364 23.8492 26.6847 24.848C28.7331 25.8467 30.5264 27.2999 31.9282 29.0967C33.3723 27.2027 34.3446 24.992 34.7647 22.6476C35.1848 20.3033 35.0406 17.8926 34.344 15.615C33.6474 13.3374 32.4185 11.2584 30.759 9.55006C29.0994 7.84171 27.0569 6.5531 24.8005 5.79085C22.544 5.02859 20.1385 4.81462 17.7829 5.16662C15.4274 5.51862 13.1895 6.42648 11.2545 7.81509C9.31942 9.20369 7.74286 11.0331 6.65522 13.152C5.56758 15.2709 5.00014 17.6183 4.99984 20ZM19.9998 35C16.5564 35.0052 13.2169 33.8206 10.5465 31.6467C11.6214 30.1079 13.0521 28.8515 14.7168 27.9845C16.3816 27.1174 18.2312 26.6653 20.1082 26.6667C21.9618 26.6652 23.789 27.106 25.438 27.9524C27.0871 28.7988 28.5104 30.0264 29.5898 31.5333C26.8987 33.7778 23.5041 35.0049 19.9998 35Z" fill="black"/>
</svg>
