<?xml version="1.0" standalone="no"?>
<!DOCTYPE svg PUBLIC "-//W3C//DTD SVG 20010904//EN"
 "http://www.w3.org/TR/2001/REC-SVG-20010904/DTD/svg10.dtd">
<svg version="1.0" xmlns="http://www.w3.org/2000/svg"
 width="452.000000pt" height="452.000000pt" viewBox="0 0 452.000000 452.000000"
 preserveAspectRatio="xMidYMid meet">

<g transform="translate(0.000000,452.000000) scale(0.100000,-0.100000)"
fill="#000000" stroke="none">
<path d="M545 3968 c-122 -23 -248 -115 -307 -225 -61 -110 -58 -46 -58 -1474
0 -833 4 -1326 10 -1360 34 -180 186 -327 370 -359 46 -8 548 -10 1740 -8
l1675 3 60 23 c127 48 226 144 277 270 l23 57 3 1329 c1 874 -1 1348 -8 1385
-32 176 -185 327 -364 360 -77 14 -3347 13 -3421 -1z m3457 -196 c63 -31 124
-102 143 -165 15 -52 22 -262 8 -255 -110 55 -148 69 -214 78 -101 13 -3271
13 -3362 0 -54 -8 -124 -34 -209 -78 -15 -7 -8 203 7 254 25 86 108 162 200
185 17 4 784 6 1705 6 l1675 -2 47 -23z m6 -548 c56 -28 91 -63 125 -128 18
-34 22 -62 25 -169 l4 -128 -48 30 c-108 65 16 61 -1854 61 -1870 0 -1746 4
-1854 -61 l-48 -30 4 128 c3 115 6 133 30 179 30 57 73 98 133 125 38 18 116
19 1736 19 l1695 0 52 -26z m-4 -538 c53 -27 104 -80 129 -135 17 -36 22 -71
25 -168 l4 -123 -498 0 c-551 0 -574 -2 -688 -63 -95 -50 -173 -134 -236 -257
-130 -250 -352 -363 -599 -305 -156 37 -272 135 -361 305 -65 126 -144 212
-238 259 -117 59 -137 61 -686 61 l-498 0 4 128 c3 118 6 131 33 181 31 56 88
106 148 128 24 9 447 11 1727 10 1655 -2 1696 -2 1734 -21z"/>
</g>
</svg>
